<?xml version="1.0" encoding="UTF-8"?>
<svg width="23px" height="26px" viewBox="0 0 23 26" version="1.1" xmlns="http://www.w3.org/2000/svg" xmlns:xlink="http://www.w3.org/1999/xlink">
    <!-- Generator: Sketch 53.1 (72631) - https://sketchapp.com -->
    <title>burn</title>
    <desc>Created with Sketch.</desc>
    <g id="Page-1" stroke="none" stroke-width="1" fill="none" fill-rule="evenodd">
        <g id="burn" fill="#000000" fill-rule="nonzero">
            <path d="M6.46845259,25.9675243 C4.70652371,22.3663783 5.64481466,20.3028839 6.99898922,18.3587753 C8.48194397,16.2296966 8.86412069,14.1221873 8.86412069,14.1221873 C8.86412069,14.1221873 10.0298836,15.6107603 9.56353879,17.9389288 C11.6230302,15.6870562 12.0117004,12.0992509 11.7007047,10.7251948 C16.3559246,13.9206629 18.3454741,20.8397303 15.6642392,25.9675243 C29.9249828,18.0421011 19.2114935,6.18322846 17.3463125,4.84739326 C17.968056,6.18317978 18.0859806,8.44454682 16.8300022,9.542 C14.7038901,1.62295506 9.44700216,0 9.44700216,0 C10.0687457,4.08389888 7.19329957,8.54961798 4.42051078,11.8864794 C4.32310776,10.2580225 4.21960776,9.13432584 3.34778879,7.57598127 C3.15209052,10.534236 0.850454741,12.9456629 0.227174569,15.9096629 C-0.617084052,19.9235955 0.859575431,22.8625693 6.46845259,25.9675243 Z" id="Path"></path>
        </g>
    </g>
</svg>